<svg xmlns="http://www.w3.org/2000/svg" viewBox="0 0 147.08 65.96"><defs><style>.cls-1{fill:#3c3c3b;stroke:#575756;stroke-miterlimit:10;stroke-width:5px;}.cls-2{opacity:0.29;}.cls-3{fill:#fff;}.cls-4{fill:#f39200;}.cls-5{fill:#f9b233;}</style></defs><g id="Capa_2" data-name="Capa 2"><g id="Capa_3" data-name="Capa 3"><rect class="cls-1" x="2.5" y="2.5" width="142.08" height="60.96" rx="8.02"/><g class="cls-2"><path class="cls-3" d="M31.48,19.71H26.22V14.25c0-.44-.27-.67-.8-.67s-.84.23-.84.67V33.36c0,.44.28.67.84.67s.8-.23.8-.67v-6.8h5.26v7a3.61,3.61,0,0,1-1.84,3.14,7.59,7.59,0,0,1-4.15,1.18q-6.69,0-6.69-5V15.19q0-5.35,6.69-5.35,6,0,6,4.87Z"/><path class="cls-3" d="M48.92,37.66H43.14q-.95-1.17-.94-6.65v0l0-1.66c0-2.29,0-3.46,0-3.51,0-.93-.6-1.4-1.8-1.4V37.62H34.7V10.09h7.15a7.63,7.63,0,0,1,4.25,1.17A4.07,4.07,0,0,1,47.91,15v3.31c0,2.13-1.19,3.58-3.58,4.33a4.27,4.27,0,0,1,3.6,4.56l-.09,3Q47.84,36.77,48.92,37.66Zm-6.65-18V15.06c0-1-.59-1.44-1.78-1.44v7.45C41.68,21.07,42.27,20.58,42.27,19.61Z"/><path class="cls-3" d="M51.54,32.91V15.19q0-5.35,6.65-5.35c4.36,0,6.55,1.77,6.55,5.32V32.88a4.24,4.24,0,0,1-1.83,3.69,8,8,0,0,1-4.76,1.3Q51.54,37.87,51.54,32.91Zm7.56.29V14.45c0-.55-.32-.83-.94-.83s-1,.28-1,.83V33.2c0,.55.33.83,1,.83S59.1,33.75,59.1,33.2Z"/><path class="cls-3" d="M67.83,26.6h5.26v6.31c0,.63.36,1,1.09,1s1.06-.32,1.06-1V29.65c0-1-.64-2.17-1.91-3.51a54,54,0,0,1-4.6-5,4.83,4.83,0,0,1-.9-2.82v-3.1q0-5.35,6.7-5.35,6,0,6,4.87v4.77H75.28V14.41c0-.55-.3-.83-.88-.83s-1,.53-1,1.6L73.48,17c0,1,.65,2.22,2,3.57A44.93,44.93,0,0,1,80,25.6a5.63,5.63,0,0,1,1,3.26v3.52q0,5.49-6.72,5.49c-4.32,0-6.48-1.67-6.48-5Z"/><path class="cls-3" d="M84.12,26.6h5.26v6.31c0,.63.36,1,1.09,1s1.06-.32,1.06-1V29.65c0-1-.64-2.17-1.91-3.51a54,54,0,0,1-4.6-5,4.83,4.83,0,0,1-.9-2.82v-3.1q0-5.35,6.7-5.35,6,0,6,4.87v4.77H91.57V14.41c0-.55-.3-.83-.88-.83s-1,.53-1,1.6L89.77,17c0,1,.65,2.22,2,3.57a44.93,44.93,0,0,1,4.61,5.07,5.63,5.63,0,0,1,1,3.26v3.52q0,5.49-6.72,5.49c-4.32,0-6.48-1.67-6.48-5Z"/></g><path class="cls-3" d="M34.09,20.84h-5V15.79c0-.41-.26-.62-.77-.62s-.79.21-.79.62V33.46c0,.42.26.62.79.62s.77-.2.77-.62V27.18h5v6.46a3.29,3.29,0,0,1-1.75,2.9,7.33,7.33,0,0,1-4,1.09c-4.25,0-6.38-1.52-6.38-4.58V16.66q0-5,6.38-4.95c3.82,0,5.72,1.5,5.72,4.51Z"/><path class="cls-3" d="M50.74,37.44H45.22c-.6-.72-.89-2.77-.89-6.14v0l0-1.53c0-2.12,0-3.2,0-3.25,0-.86-.57-1.29-1.72-1.29V37.4H37.17V11.94H44A7.48,7.48,0,0,1,48.05,13a3.77,3.77,0,0,1,1.73,3.43v3.06q0,3-3.42,4a4,4,0,0,1,3.44,4.21l-.09,2.78Q49.71,36.63,50.74,37.44ZM44.4,20.74v-4.2c0-.89-.57-1.33-1.71-1.33V22.1C43.83,22.1,44.4,21.65,44.4,20.74Z"/><path class="cls-3" d="M53.24,33.05V16.66c0-3.3,2.12-4.95,6.34-4.95s6.26,1.64,6.26,4.92V33a3.92,3.92,0,0,1-1.75,3.42,7.83,7.83,0,0,1-4.54,1.19C55.34,37.63,53.24,36.11,53.24,33.05Zm7.21.27V16c0-.51-.3-.76-.89-.76s-.93.25-.93.76V33.32c0,.51.31.76.93.76S60.45,33.83,60.45,33.32Z"/><path class="cls-3" d="M68.79,27.21h5v5.84c0,.58.34.87,1,.87s1-.29,1-.87V30c0-.93-.61-2-1.83-3.25a48.09,48.09,0,0,1-4.38-4.66,4.37,4.37,0,0,1-.86-2.61V16.66q0-5,6.39-4.95,5.73,0,5.73,4.51v4.4h-5V15.94c0-.51-.28-.77-.84-.77s-1,.49-1,1.48l.1,1.65c0,.95.62,2.05,1.87,3.3a43,43,0,0,1,4.4,4.69,5.08,5.08,0,0,1,.94,3v3.25c0,3.38-2.13,5.07-6.41,5.07-4.12,0-6.18-1.53-6.18-4.61Z"/><path class="cls-3" d="M84.34,27.21h5v5.84q0,.87,1.05.87c.67,0,1-.29,1-.87V30c0-.93-.6-2-1.82-3.25a48.09,48.09,0,0,1-4.38-4.66,4.3,4.3,0,0,1-.86-2.61V16.66q0-5,6.39-4.95,5.73,0,5.73,4.51v4.4h-5V15.94c0-.51-.28-.77-.84-.77s-1,.49-1,1.48l.1,1.65q0,1.43,1.86,3.3A43.39,43.39,0,0,1,96,26.29a5.08,5.08,0,0,1,.94,3v3.25q0,5.07-6.41,5.07c-4.12,0-6.18-1.53-6.18-4.61Z"/><path class="cls-4" d="M104.55,11.35H114l-.67,3.16h-6l-1.57,7.64h5.67l-.69,3.17h-5.67L102.52,37.4H99.08Z"/><path class="cls-4" d="M119.75,11.35,114.28,37.4h-3.37l5.47-26Z"/><path class="cls-4" d="M124.88,14.51h-4l.67-3.16h11.33l-.67,3.16h-4l-4.8,22.89h-3.37Z"/><path class="cls-5" d="M41.73,50.21H35.92v5.08h-2V50.21H28v-1.7h5.9v-5h2v5h5.81Z"/><path class="cls-5" d="M44.58,43.47h5a11.84,11.84,0,0,1,1.91.14,5,5,0,0,1,1.62.51,3,3,0,0,1,1.12,1,2.87,2.87,0,0,1,.41,1.62,3,3,0,0,1-1.26,2.64,6.23,6.23,0,0,1-3.68.91H45.57v5h-1Zm1,6h4.12a7.54,7.54,0,0,0,1.77-.18,3.31,3.31,0,0,0,1.2-.5,2,2,0,0,0,.68-.83,2.9,2.9,0,0,0,.21-1.14,2.22,2.22,0,0,0-.32-1.27,2,2,0,0,0-.85-.75,3.65,3.65,0,0,0-1.25-.35,11.81,11.81,0,0,0-1.49-.09H45.57Z"/><path class="cls-5" d="M64.49,43.25a7.33,7.33,0,0,1,2.57.43,5.85,5.85,0,0,1,2,1.23,5.69,5.69,0,0,1,1.33,1.93,6.26,6.26,0,0,1,.48,2.5,6.56,6.56,0,0,1-.47,2.51,6,6,0,0,1-1.32,1.95,6.1,6.1,0,0,1-2,1.26,7.19,7.19,0,0,1-2.59.45,7.28,7.28,0,0,1-2.6-.45,6.1,6.1,0,0,1-2-1.26,5.57,5.57,0,0,1-1.32-1.94,6.43,6.43,0,0,1-.47-2.52,6.36,6.36,0,0,1,.48-2.52,5.48,5.48,0,0,1,1.33-1.91,6,6,0,0,1,2-1.23A7.39,7.39,0,0,1,64.49,43.25Zm0,11.39a6.18,6.18,0,0,0,2.15-.35,4.77,4.77,0,0,0,1.71-1,4.55,4.55,0,0,0,1.12-1.67,5.9,5.9,0,0,0,.4-2.25,5.83,5.83,0,0,0-.41-2.25,4.58,4.58,0,0,0-1.11-1.63,4.73,4.73,0,0,0-1.69-1,6.87,6.87,0,0,0-4.3,0,4.88,4.88,0,0,0-1.71,1,4.63,4.63,0,0,0-1.13,1.63,5.81,5.81,0,0,0-.4,2.24,5.9,5.9,0,0,0,.4,2.25,4.53,4.53,0,0,0,1.11,1.67,4.73,4.73,0,0,0,1.7,1A6.28,6.28,0,0,0,64.48,54.64Z"/><path class="cls-5" d="M91.1,43.47,87.56,55.29H86.07L82.34,44.6l-3.6,10.69h-1.5L73.73,43.47h1L78,54.16l3.6-10.69h1.49l3.73,10.69L90,43.47Z"/><path class="cls-5" d="M104.39,55.29H94.56V43.47h9.49v.86h-8.5V48.7h8v.87h-8v4.86h8.84Z"/><path class="cls-5" d="M119.61,55.29h-1.09l-1.35-3.14a6.82,6.82,0,0,0-.45-.85,3.25,3.25,0,0,0-.56-.7,2.39,2.39,0,0,0-.74-.47,2.45,2.45,0,0,0-1-.17h-4.76v5.33h-1V43.47h6.13a10.05,10.05,0,0,1,1.66.13,4.41,4.41,0,0,1,1.42.48,2.56,2.56,0,0,1,1,1,2.91,2.91,0,0,1,.38,1.56,3.57,3.57,0,0,1-.17,1.1,2.59,2.59,0,0,1-.51.92,3,3,0,0,1-.87.69,4.2,4.2,0,0,1-1.24.42,4.61,4.61,0,0,1,.64.5,2.92,2.92,0,0,1,.43.5,4.23,4.23,0,0,1,.32.6c.09.21.2.46.33.74Zm-9.93-6.2h4.73a9.49,9.49,0,0,0,1.72-.13,3.32,3.32,0,0,0,1.19-.42,1.85,1.85,0,0,0,.69-.78,2.67,2.67,0,0,0,.22-1.16,1.87,1.87,0,0,0-.88-1.75,5.37,5.37,0,0,0-2.66-.52h-5Z"/></g></g></svg>